<?xml version="1.0" standalone="no"?>
<!DOCTYPE svg PUBLIC "-//W3C//DTD SVG 1.1//EN"
   "http://www.w3.org/Graphics/SVG/1.1/DTD/svg11.dtd">
<svg width="0" height="0" version="1.1"
   xmlns="http://www.w3.org/2000/svg">
   <desc>12345
   </desc>

   <g id="barcode" fill="#000000">
      <rect x="0" y="0" width="0" height="0" fill="#FFFFFF" />
      <rect x="0.00" y="0.00" width="0.00" height="0.00" />
      <rect x="0.00" y="0.00" width="0.00" height="0.00" />
      <rect x="0.00" y="0.00" width="0.00" height="0.00" />
      <rect x="0.00" y="0.00" width="0.00" height="0.00" />
      <rect x="0.00" y="0.00" width="0.00" height="0.00" />
      <rect x="0.00" y="0.00" width="0.00" height="0.00" />
      <rect x="0.00" y="0.00" width="0.00" height="0.00" />
      <rect x="0.00" y="0.00" width="0.00" height="0.00" />
      <rect x="0.00" y="0.00" width="0.00" height="0.00" />
      <rect x="0.00" y="0.00" width="0.00" height="0.00" />
      <rect x="0.00" y="0.00" width="0.00" height="0.00" />
      <rect x="0.00" y="0.00" width="0.00" height="0.00" />
      <rect x="0.00" y="0.00" width="0.00" height="0.00" />
      <rect x="0.00" y="0.00" width="0.00" height="0.00" />
      <rect x="0.00" y="0.00" width="0.00" height="0.00" />
      <rect x="0.00" y="0.00" width="0.00" height="0.00" />
      <rect x="0.00" y="0.00" width="0.00" height="0.00" />
      <rect x="0.00" y="0.00" width="0.00" height="0.00" />
      <rect x="0.00" y="0.00" width="0.00" height="0.00" />
      <rect x="0.00" y="0.00" width="0.00" height="0.00" />
      <rect x="0.00" y="0.00" width="0.00" height="0.00" />
      <rect x="0.00" y="0.00" width="0.00" height="0.00" />
      <rect x="0.00" y="0.00" width="0.00" height="-0.00" />
      <rect x="0.00" y="0.00" width="0.00" height="-0.00" />
      <rect x="0.00" y="0.00" width="0.00" height="-0.00" />
      <rect x="0.00" y="0.00" width="0.00" height="-0.00" />
      <rect x="0.00" y="0.00" width="0.00" height="-0.00" />
      <rect x="0.00" y="0.00" width="0.00" height="-0.00" />
      <rect x="0.00" y="0.00" width="0.00" height="-0.00" />
      <rect x="0.00" y="0.00" width="0.00" height="-0.00" />
      <rect x="0.00" y="0.00" width="0.00" height="-0.00" />
      <rect x="0.00" y="0.00" width="0.00" height="-0.00" />
      <rect x="0.00" y="0.00" width="0.00" height="-0.00" />
      <rect x="0.00" y="0.00" width="0.00" height="-0.00" />
      <rect x="0.00" y="0.00" width="0.00" height="-0.00" />
      <rect x="0.00" y="0.00" width="0.00" height="-0.00" />
      <rect x="0.00" y="0.00" width="0.00" height="-0.00" />
      <rect x="0.00" y="0.00" width="0.00" height="-0.00" />
      <rect x="0.00" y="0.00" width="0.00" height="-0.00" />
      <rect x="0.00" y="0.00" width="0.00" height="-0.00" />
      <rect x="0.00" y="0.00" width="0.00" height="-0.00" />
      <rect x="0.00" y="0.00" width="0.00" height="-0.00" />
      <rect x="0.00" y="0.00" width="0.00" height="-0.00" />
      <rect x="0.00" y="0.00" width="0.00" height="-0.00" />
      <text x="0.00" y="0.00" text-anchor="middle"
         font-family="Helvetica" font-size="0.0" fill="#000000" >
         12345
      </text>
   </g>
</svg>
